<?xml version="1.0" encoding="utf-8"?>
<!-- Generator: Adobe Illustrator 22.0.0, SVG Export Plug-In . SVG Version: 6.00 Build 0)  -->
<svg version="1.1" id="Layer_1" xmlns="http://www.w3.org/2000/svg" xmlns:xlink="http://www.w3.org/1999/xlink" x="0px" y="0px"
	 viewBox="0 0 869.7 1012.5" style="enable-background:new 0 0 869.7 1012.5;" xml:space="preserve">
<style type="text/css">
	.st0{fill:#78E08F;}
	.st1{fill:#E55039;}
	.st2{fill:#1E3799;}
	.st3{fill:#F6B93B;}
</style>
<path class="st0" d="M444.7,162.5c-234.7,0-425,190.3-425,425s190.3,425,425,425s425-190.3,425-425S679.4,162.5,444.7,162.5z
	 M444.7,920c-183.6,0-332.5-148.9-332.5-332.5S261.1,255,444.7,255s332.5,148.9,332.5,332.5S628.3,920,444.7,920z"/>
<g>
	
		<rect x="-99.9" y="433.3" transform="matrix(0.7421 -0.6703 0.6703 0.7421 -206.3198 421.325)" class="st1" width="1088.4" height="91"/>
</g>
<g>
	<rect x="66.4" y="256.2" transform="matrix(0.7421 -0.6703 0.6703 0.7421 -72.02 416.254)" class="st2" width="877" height="91"/>
</g>
<g>
	
		<rect x="66.4" y="500.2" transform="matrix(0.7421 -0.6703 0.6703 0.7421 -235.5659 479.1806)" class="st3" width="877" height="91"/>
</g>
</svg>
