<?xml version="1.0" encoding="utf-8"?>
<!-- Generator: Adobe Illustrator 22.0.0, SVG Export Plug-In . SVG Version: 6.00 Build 0)  -->
<svg version="1.1" xmlns="http://www.w3.org/2000/svg" xmlns:xlink="http://www.w3.org/1999/xlink" x="0px" y="0px"
	 viewBox="0 0 576 200" style="enable-background:new 0 0 576 200;" xml:space="preserve">
<style type="text/css">
	.f0{clip-path:url(#SVGID_2_);}
	.f1{fill:#85C388;}
	.f2{fill:#FFFFFF;}
</style>
<g id="fLayer_1">
</g>
<g id="fLayer_2">
	<g>
		<defs>
			<path id="fSVGID_1_" d="M541,200H35c-19.2,0-35-15.8-35-35V35C0,15.8,15.8,0,35,0h506c19.2,0,35,15.8,35,35v130
				C576,184.2,560.2,200,541,200z"/>
		</defs>
		<clipPath id="fSVGID_2_">
			<use xlink:href="#fSVGID_1_"  style="overflow:visible;"/>
		</clipPath>
		<g class="f0">
			
				<rect x="-12.9" y="-472" transform="matrix(-1.836970e-16 1 -1 -1.836970e-16 154.2437 -384.9823)" class="f1" width="565.1" height="713.3"/>
			
				<rect x="48.6" y="-110.7" transform="matrix(-1.836970e-16 1 -1 -1.836970e-16 646.45 -15.7113)" class="f1" width="565.1" height="852.2"/>
			<circle class="f2" cx="234.9" cy="39.6" r="183.3"/>
			<circle class="f1" cx="234.9" cy="39.6" r="155.6"/>
			
				<rect x="223.4" y="-334.5" transform="matrix(-1.836970e-16 1 -1 -1.836970e-16 274.5171 -195.3443)" class="f2" width="23" height="748.1"/>
			<circle class="f2" cx="234.9" cy="39.6" r="22"/>
		</g>
	</g>
</g>
</svg>
