<?xml version="1.0" encoding="utf-8"?>
<!-- Generator: Adobe Illustrator 19.0.0, SVG Export Plug-In . SVG Version: 6.00 Build 0)  -->
<svg version="1.1" id="user_1" xmlns="http://www.w3.org/2000/svg" xmlns:xlink="http://www.w3.org/1999/xlink" x="0px" y="0px"
	 viewBox="-245.3 362.5 50 50" style="enable-background:new -245.3 362.5 50 50;" xml:space="preserve">
<style type="text/css">
	.user0{fill:#F8983C;}
	.user1{fill:#FFFFFF;}
</style>
<g>
	<circle class="user0" cx="-220.3" cy="387.5" r="25"/>
	<g id="XMLID_1_">
		<g id="XMLID_5_">
			<g id="XMLID_8_">
				<path id="XMLID_36_" class="user1" d="M-225.1,402.5c-0.3,0-0.5-0.2-0.7-0.4c-0.3-0.4-0.5-0.9-0.9-1.5c-0.7-1.3-1.2-2.4-1.7-3.7
					c-0.7-1.7-1.1-3.1-1.2-4.4c-0.2-1.7,0.1-3.1,0.8-4.2c0.7-1,1.8-1.6,3.1-1.8c0.5-0.1,1.1-0.1,1.6-0.1h0.4h5.3c0.8,0,1.7,0,2.6,0
					l0,0c2.2,0,4,1.2,4.7,3c0.5,1.5,0.3,3.1,0.1,4.2c-0.3,1.3-0.7,2.6-1.4,4.2c-0.5,1.1-1,2.1-1.6,3.2c-0.2,0.4-0.4,0.7-0.6,1
					c-0.2,0.4-0.7,0.5-1.1,0.3c-0.4-0.2-0.5-0.7-0.3-1.1c0.2-0.3,0.4-0.6,0.6-1c0.6-1,1.1-2.1,1.5-3.1c0.6-1.5,1.1-2.8,1.3-3.9
					c0.3-1.4,0.3-2.5,0-3.4c-0.5-1.4-2-2-3.2-2l0,0c-0.8,0-1.7,0-2.6,0h-5.3c-0.2,0-0.3,0-0.4,0c-0.5,0-0.9,0-1.3,0.1
					c-0.9,0.2-1.6,0.6-2.1,1.2c-0.5,0.7-0.7,1.7-0.5,3.1c0.2,1.2,0.5,2.5,1.1,4.1c0.5,1.1,1,2.3,1.6,3.5c0.3,0.6,0.6,1.1,0.8,1.4
					c0.2,0.4,0.1,0.8-0.3,1.1C-224.8,402.4-225,402.5-225.1,402.5z"/>
			</g>
		</g>
		<g id="XMLID_6_">
			<g id="XMLID_4_">
				<path id="XMLID_33_" class="user1" d="M-220.3,384.6c-3.3,0-6.1-2.8-6.1-6.1c0-1.1,0.3-2.2,0.8-3.1c0.2-0.3,0.4-0.6,0.6-0.9
					c1.2-1.4,2.9-2.1,4.6-2.1c2,0,3.9,1,5,2.7c0.7,1,1.1,2.2,1.1,3.4C-214.2,381.9-216.9,384.6-220.3,384.6z M-220.3,374.1
					c-1.3,0-2.5,0.6-3.4,1.6c-0.2,0.2-0.3,0.4-0.5,0.6c-0.4,0.7-0.6,1.5-0.6,2.3c0,2.5,2,4.5,4.5,4.5s4.5-2,4.5-4.5
					c0-0.9-0.3-1.8-0.8-2.5C-217.4,374.8-218.8,374.1-220.3,374.1z"/>
			</g>
		</g>
	</g>
</g>
</svg>
