<?xml version="1.0" encoding="utf-8"?>
<!-- Generator: Adobe Illustrator 22.0.0, SVG Export Plug-In . SVG Version: 6.00 Build 0)  -->
<svg version="1.1" id="background-index2" xmlns="http://www.w3.org/2000/svg" xmlns:xlink="http://www.w3.org/1999/xlink" x="0px" y="0px"
	 viewBox="0 0 525 770.3" style="enable-background:new 0 0 525 770.3;" xml:space="preserve">
<style type="text/css">
	.index0{fill:#1E3799;}
	.index1{fill:#FA983A;}
	.index2{fill:#3C6382;}
	.index3{fill:#E55039;}
</style>
<rect x="194.7" y="31.9" transform="matrix(0.7071 0.7071 -0.7071 0.7071 156.5227 -160.229)" class="index0" width="153.9" height="153.9"/>
<rect x="377.3" y="170.9" transform="matrix(0.7071 0.7071 -0.7071 0.7071 278.2636 -236.1374)" class="index1" width="93.8" height="93.8"/>
<path class="index2" d="M262.5,245.3C117.5,245.3,0,362.9,0,507.8s117.5,262.5,262.5,262.5S525,652.8,525,507.8
	S407.5,245.3,262.5,245.3z M262.5,719.3C145.7,719.3,51,624.6,51,507.8s94.7-211.5,211.5-211.5S474,391,474,507.8
	S379.3,719.3,262.5,719.3z"/>
<rect x="111.3" y="244.9" transform="matrix(0.7071 0.7071 -0.7071 0.7071 252.6799 -26.3729)" class="index3" width="93.8" height="93.8"/>
</svg>
