<?xml version="1.0" encoding="utf-8"?>
<!-- Generator: Adobe Illustrator 22.0.0, SVG Export Plug-In . SVG Version: 6.00 Build 0)  -->
<svg version="1.1" id="user1" xmlns="http://www.w3.org/2000/svg" xmlns:xlink="http://www.w3.org/1999/xlink" x="0px" y="0px"
	 viewBox="0 0 1014.5 338.2" style="enable-background:new 0 0 1014.5 338.2;" xml:space="preserve">
<style type="text/css">
	.us0{fill:#FA983A;}
	.us1{font-family:'Roboto-Medium';}
	.us2{font-size:140px;}
</style>
<text transform="matrix(1 0 0 1 373.9152 220.4092)" class="us0 us1 us2">PLAY/OFF</text>
<g>
	<path class="us0" d="M273.2,234l64.9-64.9l-64.9-64.9c-2.7,2.8-5.4,5.7-7.8,8.9C236.9,150,241,201.9,273.2,234z"/>
	<g>
		<path class="us0" d="M64.9,104.2L0,169.1L64.9,234c2.7-2.8,5.4-5.7,7.8-8.9C101.2,188.1,97.2,136.3,64.9,104.2z"/>
		<path class="us0" d="M254.4,85.3L254.4,85.3L169.1,0L83.8,85.3c46.3,46.3,46.3,121.3,0,167.5l85.3,85.3l85.3-85.3
			C208.2,206.6,208.2,131.6,254.4,85.3z"/>
	</g>
</g>
</svg>
