<?xml version="1.0" encoding="utf-8"?>
<!-- Generator: Adobe Illustrator 22.0.0, SVG Export Plug-In . SVG Version: 6.00 Build 0)  -->
<svg version="1.1" id="Layer_1" xmlns="http://www.w3.org/2000/svg" xmlns:xlink="http://www.w3.org/1999/xlink" x="0px" y="0px"
	 viewBox="0 0 576 200" style="enable-background:new 0 0 576 200;" xml:space="preserve">
<style type="text/css">
	.st0{clip-path:url(#SVGID_2_);}
	.st1{fill:#85C287;}
	.st2{fill:#81CBDD;}
	.st3{fill:#F5B839;}
	.st4{fill:#348067;}
</style>
<g id="Layer_1_1_">
</g>
<g>
	<defs>
		<path id="SVGID_1_" d="M541,200H35c-19.2,0-35-15.8-35-35V35C0,15.8,15.8,0,35,0h506c19.2,0,35,15.8,35,35v130
			C576,184.2,560.2,200,541,200z"/>
	</defs>
	<clipPath id="SVGID_2_">
		<use xlink:href="#SVGID_1_"  style="overflow:visible;"/>
	</clipPath>
	<g class="st0">
		
			<rect x="-374.3" y="-45.6" transform="matrix(0.7071 0.7071 -0.7071 0.7071 140.6759 134.33)" class="st1" width="565.1" height="565.1"/>
		
			<rect x="43.6" y="372.4" transform="matrix(0.7071 0.7071 -0.7071 0.7071 558.6157 -38.7863)" class="st1" width="565.1" height="565.1"/>
		
			<rect x="124.7" y="-648.7" transform="matrix(0.7071 -0.7071 0.7071 0.7071 231.5122 304.3219)" class="st2" width="716.9" height="1042.8"/>
		<circle class="st3" cx="354.7" cy="64.5" r="19.9"/>
		<ellipse class="st4" cx="354.7" cy="111.8" rx="19.9" ry="13.7"/>
	</g>
</g>
</svg>
